<?xml version="1.0" encoding="UTF-8"?>
<svg xmlns="http://www.w3.org/2000/svg" viewBox="0 0 512 512">
  <defs>
    <style>
      .cls-1 {
        fill: #3a0ca3;
      }
    </style>
  </defs>
  <g id="Layer_2" data-name="Layer 2">
    <path class="cls-1" d="M0,512V0H512V512H0Zm20.38-256c0,74.26,0,148.53,0,222.79,0,3.6-.02,7.2-.04,10.8-.01,1.96,.35,2.36,2.28,2.43,.4,.01,.8,0,1.2,0,154.93,0,309.85,0,464.78,0,.67,0,1.34,.04,2-.03,1.23-.13,1.65-.57,1.69-1.79,.04-1.06-.04-2.13-.04-3.2,0-153.99,0-307.99,0-461.98,0-1,.08-2,.05-3-.05-1.22-.47-1.67-1.69-1.8-.73-.08-1.46-.04-2.2-.04-154.86,0-309.72,0-464.58,0-.53,0-1.07-.03-1.6,.02-1.45,.13-1.86,.56-1.88,2.03-.02,1.27,.05,2.53,.05,3.8,0,76.66,0,153.33,0,229.99Z"/>
  </g>
  <g id="Layer_1" data-name="Layer 1">
    <path class="cls-1" d="M64.54,82.98c0-13.93,0-27.86,0-41.8,0-.27-.02-.53,0-.8,.09-1.64,.56-2.08,2.24-2.09,3.73,0,7.47,0,11.2,0,11.13,0,22.27,.03,33.4-.03,1.81,0,3.1,.47,4.24,2,3.71,4.95,7.56,9.79,11.37,14.66,1.48,1.89,3.04,3.71,4.52,5.59,3.17,4.02,6.31,8.07,9.48,12.08,2.39,3.03,4.85,6.01,7.24,9.03,3.42,4.33,6.81,8.7,10.23,13.04,3.12,3.98,6.26,7.95,9.38,11.94,4.4,5.6,8.78,11.22,13.19,16.82,5.07,6.43,10.19,12.83,15.26,19.26,4.94,6.28,9.83,12.6,14.78,18.88,7.09,9,14.23,17.97,21.32,26.96,4.29,5.44,8.53,10.92,12.81,16.36,4.36,5.55,8.77,11.06,13.13,16.61,6.46,8.22,12.88,16.47,19.34,24.69,4.24,5.39,8.55,10.72,12.8,16.11,4.21,5.33,8.36,10.71,12.57,16.05,7.34,9.31,14.71,18.61,22.05,27.92,4.17,5.28,8.3,10.59,12.47,15.87,3.84,4.86,7.72,9.69,11.55,14.56,4.2,5.34,8.36,10.71,12.57,16.05,6.6,8.37,13.25,16.7,19.84,25.07,4.32,5.49,8.58,11.04,12.85,16.56,2.52,3.26,5.02,6.54,7.56,9.78,.3,.38,.94,.88,1.22,.77,.45-.17,.8-.76,1.06-1.24,.17-.33,.14-.78,.15-1.18,.31-11.06,.7-22.11,.88-33.17,.12-7.39,.05-14.79-.13-22.18-.14-5.73-.61-11.45-.89-17.17-.18-3.73-.16-7.47-.46-11.19-.69-8.57-1.17-17.18-2.42-25.67-.95-6.44-1.25-13.01-3.05-19.33-.25-.89-.23-1.85-.39-2.77-.33-1.9-.69-3.79-1.05-5.69-.34-1.76-.68-3.53-1.04-5.29-.28-1.37-.6-2.73-.9-4.09-.38-1.69-.75-3.37-1.14-5.06-.24-1.04-.51-2.06-.77-3.09-.44-1.74-.88-3.48-1.32-5.22-.08-.32-.11-.66-.2-.98-.72-2.49-1.42-4.98-2.19-7.46-1.23-3.93-2.45-7.85-3.79-11.75-.88-2.57-1.95-5.08-2.92-7.62-.28-.74-.53-1.5-.8-2.25-.27-.75-.5-1.52-.81-2.25-.99-2.32-2.01-4.62-3.04-6.93-1.16-2.6-2.33-5.19-3.52-7.77-.8-1.74-1.62-3.48-2.48-5.2-1.19-2.37-2.41-4.71-3.63-7.06-.88-1.71-1.75-3.42-2.66-5.12-.78-1.46-1.56-2.93-2.44-4.33-2.61-4.17-5.18-8.35-7.92-12.43-2.26-3.36-4.67-6.62-7.12-9.85-3.33-4.4-6.62-8.84-10.19-13.04-4.14-4.86-8.51-9.53-12.9-14.17-6.46-6.82-13.39-13.16-20.48-19.3-4.42-3.82-9.15-7.28-13.76-10.88-2.15-1.67-4.32-3.31-6.53-4.9-2.42-1.74-4.9-3.42-7.37-5.09-3.3-2.23-6.61-4.45-9.93-6.64-1.71-1.13-3.47-2.19-5.22-3.26-1.19-.72-2.4-1.41-3.62-2.08-.73-.4-1.39-.82-1.34-1.79,.04-.93,.64-1.41,1.39-1.79,1.18-.6,2.35-1.21,3.55-1.79,1.91-.92,3.84-1.8,5.74-2.74,1.31-.64,2.59-1.33,3.88-2.01,1.82-.96,3.62-1.95,5.44-2.89,1.94-1,3.93-1.92,5.87-2.93,1.99-1.03,3.95-2.13,5.93-3.19,1.52-.81,3.04-1.61,4.56-2.4,3.82-1.99,7.63-3.99,11.45-5.95,1.36-.7,2.77-1.28,4.15-1.94,.98-.47,1.75-.25,2.52,.5,2.67,2.6,5.44,5.1,8.07,7.75,5.07,5.1,10.2,10.14,15.06,15.43,5.26,5.73,10.26,11.69,15.32,17.59,3.12,3.63,6.21,7.29,9.18,11.05,2.47,3.13,4.73,6.41,7.08,9.63,1.61,2.2,3.24,4.38,4.79,6.62,1.7,2.45,3.33,4.96,4.99,7.44,.99,1.49,1.99,2.98,2.98,4.47,.92,1.38,1.88,2.73,2.74,4.15,2.58,4.25,5.15,8.51,7.65,12.81,1,1.71,1.8,3.54,2.73,5.3,.74,1.41,1.56,2.77,2.28,4.18,1.18,2.3,2.2,4.69,3.5,6.92,1.01,1.72,2,3.41,2.79,5.25,1.09,2.56,2.34,5.05,3.54,7.56,1.02,2.16,2.11,4.29,3.08,6.46,.76,1.7,1.38,3.45,2.08,5.17,.53,1.29,1.11,2.55,1.65,3.83,.36,.86,.68,1.73,1.03,2.59,.32,.8,.65,1.6,.99,2.39,.13,.3,.37,.56,.48,.87,.9,2.56,1.78,5.14,2.68,7.7,.24,.69,.54,1.36,.8,2.04,.33,.87,.67,1.73,.98,2.61,.42,1.19,.82,2.38,1.24,3.57,.11,.31,.28,.61,.38,.92,.86,2.93,1.68,5.87,2.57,8.79,.99,3.24,2.04,6.46,3.06,9.69,.08,.25,.24,.48,.31,.74,.86,3.42,1.72,6.83,2.56,10.25,1,4.07,1.99,8.13,2.98,12.2,.36,1.48,.71,2.97,1.03,4.46,.13,.58,.13,1.19,.25,1.78,.68,3.46,1.33,6.93,2.09,10.37,.56,2.54,1.13,5.05,1.3,7.66,.14,2.04,.78,4.05,1.2,6.07,.16,.78,.39,1.56,.5,2.35,.84,6.14,1.69,12.27,2.49,18.41,.45,3.44,.79,6.89,1.19,10.33,.26,2.25,.6,4.49,.8,6.75,1.45,16.4,2.34,32.83,3.13,49.28,1.27,26.45,1,52.91,1.11,79.37,0,1.27,.08,2.53,.05,3.8-.03,1.34-.47,1.77-1.8,1.89-.4,.04-.8,.01-1.2,.01-12.8,0-25.6,0-38.4,0-.6,0-1.2,0-1.8-.04-1.14-.07-1.99-.62-2.69-1.51-2.5-3.2-5.03-6.37-7.54-9.56-3.69-4.71-7.36-9.45-11.06-14.15-4.16-5.28-8.36-10.52-12.52-15.8-4.49-5.7-8.94-11.43-13.43-17.13-4-5.08-8.03-10.12-12.03-15.19-4.74-6.02-9.45-12.06-14.2-18.07-6.23-7.9-12.48-15.78-18.7-23.68-7.37-9.37-14.72-18.77-22.09-28.14-4.33-5.5-8.69-10.96-13.03-16.45-5.24-6.63-10.47-13.28-15.71-19.92-5.32-6.74-10.64-13.48-15.95-20.24-6.87-8.75-13.7-17.52-20.57-26.26-8.98-11.42-17.97-22.82-26.97-34.22-6.31-8-12.67-15.96-18.97-23.97-6.92-8.79-13.79-17.62-20.7-26.42-6.13-7.8-12.28-15.59-18.41-23.39-4.69-5.96-9.35-11.95-14.05-17.9-4.17-5.27-8.39-10.49-12.56-15.75-.99-1.25-1.87-2.59-2.77-3.91-.38-.56-.73-1.37-1.46-1.04-.46,.21-.87,1.02-.91,1.59-.16,2.19-.15,4.39-.23,6.59-.34,9.39-.81,18.78-.99,28.17-.14,7.39,.03,14.79,.16,22.19,.09,5.2,.27,10.39,.51,15.58,.35,7.86,.68,15.72,1.23,23.56,.45,6.45,1.16,12.87,1.83,19.3,.22,2.12,.73,4.2,1.05,6.31,.94,6.19,1.85,12.38,2.78,18.56,.11,.72,.24,1.45,.38,2.16,.57,2.8,1.13,5.61,1.73,8.4,.19,.91,.47,1.8,.72,2.7,.3,1.09,.72,2.17,.86,3.28,.28,2.27,.77,4.46,1.65,6.57,.2,.49,.27,1.03,.41,1.54,.53,1.99,1.06,3.97,1.61,5.96,.89,3.2,1.79,6.39,2.69,9.59,.02,.06,.02,.13,.04,.2,1.06,2.93,2.12,5.86,3.17,8.8,.92,2.56,1.83,5.12,2.73,7.68,.11,.31,.15,.66,.28,.96,.96,2.18,1.94,4.35,2.89,6.54,.98,2.25,1.89,4.52,2.9,6.75,.98,2.17,2.04,4.31,3.1,6.44,.74,1.48,1.54,2.94,2.3,4.41,1.58,3.06,3.06,6.18,4.74,9.19,1.58,2.84,3.34,5.57,5.05,8.33,1.51,2.42,3.02,4.85,4.62,7.21,2.27,3.35,4.55,6.7,6.96,9.96,3.09,4.16,6.25,8.27,9.5,12.32,2.04,2.54,4.21,4.99,6.44,7.36,4.19,4.46,8.34,8.98,12.75,13.21,5.9,5.66,11.99,11.13,18.11,16.55,3.18,2.81,6.57,5.4,9.95,7.97,3.12,2.36,6.36,4.56,9.55,6.82,3.3,2.34,6.58,4.72,9.93,6.98,2.58,1.74,5.26,3.33,7.89,4.99,1.41,.88,2.81,1.76,4.23,2.62,.79,.48,1.59,.95,2.4,1.4,.73,.4,1.52,.88,1.28,1.8-.16,.63-.67,1.35-1.23,1.65-1.8,.98-3.72,1.73-5.54,2.66-1.83,.93-3.6,1.97-5.41,2.94-1.76,.93-3.53,1.83-5.3,2.74-2.24,1.15-4.47,2.32-6.72,3.44-1.89,.94-3.84,1.79-5.72,2.75-1.88,.96-3.72,2-5.58,3.01-.41,.22-.79,.48-1.2,.69-2.28,1.2-4.56,2.4-6.86,3.57-1.83,.93-3.69,1.8-5.53,2.71-.84,.41-1.66,.84-2.49,1.26-1.35,.69-1.81,.67-2.86-.33-2.85-2.7-5.71-5.39-8.49-8.16-4.48-4.46-8.95-8.93-13.33-13.49-2.21-2.29-4.2-4.8-6.31-7.18-1.63-1.84-3.35-3.6-4.97-5.45-1.79-2.06-3.51-4.17-5.25-6.28-2.92-3.53-5.87-7.05-8.74-10.62-1.83-2.28-3.58-4.62-5.31-6.98-2.48-3.37-4.96-6.74-7.35-10.17-1.71-2.45-3.26-5.01-4.91-7.5-1.69-2.54-3.43-5.05-5.11-7.59-.7-1.05-1.31-2.15-1.95-3.24-1.61-2.74-3.22-5.49-4.83-8.24-1.04-1.77-2.1-3.53-3.1-5.32-1.03-1.85-1.98-3.74-2.97-5.61-.81-1.52-1.63-3.04-2.43-4.56-1.69-3.22-3.43-6.43-5.04-9.69-.97-1.96-1.73-4.02-2.61-6.03-.72-1.64-1.49-3.26-2.22-4.89-1.72-3.88-3.49-7.74-5.13-11.66-1-2.38-1.78-4.85-2.69-7.26-.96-2.54-1.97-5.07-2.93-7.61-.33-.87-.6-1.76-.9-2.63-.32-.94-.66-1.88-.98-2.82-.34-1-.68-2.01-1.02-3.02-.36-1.07-.72-2.14-1.06-3.22-.32-1.01-.6-2.04-.9-3.06-.26-.89-.52-1.78-.79-2.68-.38-1.27-.77-2.55-1.14-3.82-.09-.32-.1-.66-.2-.98-1.07-3.56-2.15-7.12-3.21-10.68-.23-.76-.41-1.54-.61-2.31-.4-1.54-.78-3.09-1.19-4.63-.1-.39-.28-.75-.37-1.14-.83-3.63-1.68-7.25-2.48-10.89-.52-2.34-1.03-4.68-1.45-7.04-.77-4.32-1.46-8.66-2.2-12.98-.25-1.44-.59-2.87-.82-4.31-.74-4.67-1.49-9.34-2.17-14.01-1.66-11.27-3.14-22.56-3.83-33.95-.23-3.79-.86-7.55-1.09-11.34-.46-7.58-.85-15.17-1.14-22.77-.49-12.72-.91-25.44-1.31-38.16-.1-3.26-.02-6.53-.02-9.8-.07,0-.15,0-.22,0Z"/>
  </g>
</svg>